# xmcd CD database file
# Copyright (C) 1993-1998 Ti Kan
# 
# Track frame offsets:
#     150
#     11315
#     28562
#     43040
#     55042
#     68777
#     82247
#     91845
#     101985
#     112225
#     129810
#     140285
#     152270
#     165447
#     177510
#     187350
#     199205
#     207360
#     216232
#     227655
#     238395
#     246295
#     258345
# 
# Disc length: 3582 seconds
# 
# Revision: 1
# Processed by: cddbd v1.4b41PL1 Copyright (c) Steve Scherf et al.
# Submitted via: DiscPlay 4.0.4
# 
DISCID=490dfc17
DTITLE=Carl Perkins - The Best Of Carl Perkins
DYEAR=1900
DGENRE=
TTITLE0=Memphis Tennessee
TTITLE1=Susie Q
TTITLE2=That's Alright Mama
TTITLE3=Whole Lotta Shakin' Goin' On
TTITLE4=Rock Island Line
TTITLE5=Lawdy Miss Clawdy
TTITLE6=Blueberry Hill
TTITLE7=Maybelline
TTITLE8=Blue Suede Shoes
TTITLE9=Got My Mojo Workin'
TTITLE10=Slippin' And Slidin'
TTITLE11=Roll Over Beethoven
TTITLE12=Matchbox
TTITLE13=Honey Don't
TTITLE14=All Shook-up
TTITLE15=Lucille
TTITLE16=Singing The Blues
TTITLE17=Hound Dog
TTITLE18=Be-Bop-A-Lula
TTITLE19=I'm Walkin'
TTITLE20=Tutti Fruiti
TTITLE21=What'd I Say
TTITLE22=Jailhouse Rock
EXTD=
EXTT0=
EXTT1=
EXTT2=
EXTT3=
EXTT4=
EXTT5=
EXTT6=
EXTT7=
EXTT8=
EXTT9=
EXTT10=
EXTT11=
EXTT12=
EXTT13=
EXTT14=
EXTT15=
EXTT16=
EXTT17=
EXTT18=
EXTT19=
EXTT20=
EXTT21=
EXTT22=
PLAYORDER=
